<mxfile host="65bd71144e">
    <diagram name="Funding Priorities Venn" id="funding-venn">
        <mxGraphModel dx="690" dy="428" grid="1" gridSize="10" guides="1" tooltips="1" connect="1" arrows="1" fold="1" page="1" pageScale="1" pageWidth="1100" pageHeight="850" math="0" shadow="0">
            <root>
                <mxCell id="0"/>
                <mxCell id="1" parent="0"/>
                <mxCell id="2" value="&lt;font style=&quot;font-size: 20px;&quot;&gt;&lt;b&gt;Modern Research Funding Priorities&lt;/b&gt;&lt;/font&gt;" style="text;html=1;strokeColor=none;fillColor=none;align=center;verticalAlign=middle;whiteSpace=wrap;rounded=0;fontColor=#00539B;" parent="1" vertex="1">
                    <mxGeometry x="270" y="20" width="560" height="30" as="geometry"/>
                </mxCell>
                <mxCell id="3" value="" style="ellipse;whiteSpace=wrap;html=1;aspect=fixed;fillColor=#00539B;strokeColor=#00539B;opacity=40;" parent="1" vertex="1">
                    <mxGeometry x="250" y="130" width="300" height="300" as="geometry"/>
                </mxCell>
                <mxCell id="4" value="" style="ellipse;whiteSpace=wrap;html=1;aspect=fixed;fillColor=#B22222;strokeColor=#B22222;opacity=40;" parent="1" vertex="1">
                    <mxGeometry x="400" y="130" width="300" height="300" as="geometry"/>
                </mxCell>
                <mxCell id="5" value="" style="ellipse;whiteSpace=wrap;html=1;aspect=fixed;fillColor=#228B22;strokeColor=#228B22;opacity=40;" parent="1" vertex="1">
                    <mxGeometry x="325" y="270" width="300" height="300" as="geometry"/>
                </mxCell>
                <mxCell id="6" value="&lt;font style=&quot;font-size: 16px;&quot;&gt;&lt;b&gt;Research&lt;br&gt;Quality&lt;/b&gt;&lt;/font&gt;" style="text;html=1;strokeColor=none;fillColor=none;align=center;verticalAlign=middle;whiteSpace=wrap;rounded=0;fontColor=#00539B;" parent="1" vertex="1">
                    <mxGeometry x="225" y="190" width="100" height="30" as="geometry"/>
                </mxCell>
                <mxCell id="7" value="&lt;font style=&quot;font-size: 16px;&quot;&gt;&lt;b&gt;Participant&lt;br&gt;Safety&lt;/b&gt;&lt;/font&gt;" style="text;html=1;strokeColor=none;fillColor=none;align=center;verticalAlign=middle;whiteSpace=wrap;rounded=0;fontColor=#B22222;" parent="1" vertex="1">
                    <mxGeometry x="625" y="190" width="100" height="30" as="geometry"/>
                </mxCell>
                <mxCell id="8" value="&lt;font style=&quot;font-size: 16px;&quot;&gt;&lt;b&gt;Environmental&lt;br&gt;Sustainability&lt;/b&gt;&lt;/font&gt;" style="text;html=1;strokeColor=none;fillColor=none;align=center;verticalAlign=middle;whiteSpace=wrap;rounded=0;fontColor=#228B22;" parent="1" vertex="1">
                    <mxGeometry x="425" y="520" width="100" height="30" as="geometry"/>
                </mxCell>
                <mxCell id="9" value="&lt;font style=&quot;font-size: 12px;&quot;&gt;High-quality research that minimizes waste&lt;/font&gt;" style="text;html=1;strokeColor=none;fillColor=none;align=center;verticalAlign=middle;whiteSpace=wrap;rounded=0;" parent="1" vertex="1">
                    <mxGeometry x="280" y="320" width="140" height="40" as="geometry"/>
                </mxCell>
                <mxCell id="10" value="&lt;font style=&quot;font-size: 12px;&quot;&gt;Participant-centric approach with lower emissions&lt;/font&gt;" style="text;html=1;strokeColor=none;fillColor=none;align=center;verticalAlign=middle;whiteSpace=wrap;rounded=0;" parent="1" vertex="1">
                    <mxGeometry x="530" y="320" width="140" height="40" as="geometry"/>
                </mxCell>
                <mxCell id="11" value="&lt;font style=&quot;font-size: 12px;&quot;&gt;Safe, high-quality conduct of research&lt;/font&gt;" style="text;html=1;strokeColor=none;fillColor=none;align=center;verticalAlign=middle;whiteSpace=wrap;rounded=0;" parent="1" vertex="1">
                    <mxGeometry x="400" y="170" width="150" height="30" as="geometry"/>
                </mxCell>
                <mxCell id="12" value="&lt;font style=&quot;font-size: 14px;&quot;&gt;&lt;b&gt;Responsible&lt;br&gt;Research&lt;br&gt;Conduct&lt;/b&gt;&lt;/font&gt;" style="text;html=1;strokeColor=none;fillColor=none;align=center;verticalAlign=middle;whiteSpace=wrap;rounded=0;fontColor=#00539B;" parent="1" vertex="1">
                    <mxGeometry x="405" y="320" width="140" height="60" as="geometry"/>
                </mxCell>
                <mxCell id="13" value="Wellcome&#10;Trust" style="shape=image;imageAspect=0;aspect=fixed;verticalLabelPosition=bottom;verticalAlign=top;fontSize=10;image=data:image/svg+xml,PHN2ZyB4bWxucz0iaHR0cDovL3d3dy53My5vcmcvMjAwMC9zdmciIHdpZHRoPSI1MCIgaGVpZ2h0PSI1MCIgdmlld0JveD0iMCAwIDEwMCAxMDAiPjxjaXJjbGUgY3g9IjUwIiBjeT0iNTAiIHI9IjQ1IiBmaWxsPSIjMDA1MzlCIi8+PHRleHQgeD0iNTAiIHk9IjUwIiBmb250LWZhbWlseT0iQXJpYWwiIGZvbnQtc2l6ZT0iMTIiIHRleHQtYW5jaG9yPSJtaWRkbGUiIGR5PSIuM2VtIiBmaWxsPSJ3aGl0ZSI+VzwvdGV4dD48L3N2Zz4=" parent="1" vertex="1">
                    <mxGeometry x="190" y="390" width="42.86" height="60" as="geometry"/>
                </mxCell>
                <mxCell id="14" value="Gates&#10;Foundation" style="shape=image;imageAspect=0;aspect=fixed;verticalLabelPosition=bottom;verticalAlign=top;fontSize=10;image=data:image/svg+xml,PHN2ZyB4bWxucz0iaHR0cDovL3d3dy53My5vcmcvMjAwMC9zdmciIHdpZHRoPSI1MCIgaGVpZ2h0PSI1MCIgdmlld0JveD0iMCAwIDEwMCAxMDAiPjxyZWN0IHg9IjEwIiB5PSIxMCIgd2lkdGg9IjgwIiBoZWlnaHQ9IjgwIiBmaWxsPSIjRkY4QzAwIiByeD0iMTAiLz48dGV4dCB4PSI1MCIgeT0iNTAiIGZvbnQtZmFtaWx5PSJBcmlhbCIgZm9udC1zaXplPSIxMiIgdGV4dC1hbmNob3I9Im1pZGRsZSIgZHk9Ii4zZW0iIGZpbGw9IndoaXRlIj5HRjwvdGV4dD48L3N2Zz4=" parent="1" vertex="1">
                    <mxGeometry x="190" y="280" width="42.86" height="60" as="geometry"/>
                </mxCell>
                <mxCell id="15" value="NIH" style="shape=image;imageAspect=0;aspect=fixed;verticalLabelPosition=bottom;verticalAlign=top;fontSize=10;image=data:image/svg+xml,PHN2ZyB4bWxucz0iaHR0cDovL3d3dy53My5vcmcvMjAwMC9zdmciIHdpZHRoPSI1MCIgaGVpZ2h0PSI1MCIgdmlld0JveD0iMCAwIDEwMCAxMDAiPjxyZWN0IHg9IjEwIiB5PSIxMCIgd2lkdGg9IjgwIiBoZWlnaHQ9IjgwIiBmaWxsPSIjMjI4QjIyIiByeD0iNDAiLz48dGV4dCB4PSI1MCIgeT0iNTAiIGZvbnQtZmFtaWx5PSJBcmlhbCIgZm9udC1zaXplPSIxMiIgdGV4dC1hbmNob3I9Im1pZGRsZSIgZHk9Ii4zZW0iIGZpbGw9IndoaXRlIj5OSUg8L3RleHQ+PC9zdmc+" parent="1" vertex="1">
                    <mxGeometry x="710" y="230" width="50.01" height="70" as="geometry"/>
                </mxCell>
                <mxCell id="16" value="MRC" style="shape=image;imageAspect=0;aspect=fixed;verticalLabelPosition=bottom;verticalAlign=top;fontSize=10;image=data:image/svg+xml,PHN2ZyB4bWxucz0iaHR0cDovL3d3dy53My5vcmcvMjAwMC9zdmciIHdpZHRoPSI1MCIgaGVpZ2h0PSI1MCIgdmlld0JveD0iMCAwIDEwMCAxMDAiPjxyZWN0IHg9IjEwIiB5PSIxMCIgd2lkdGg9IjgwIiBoZWlnaHQ9IjgwIiBmaWxsPSIjQjIyMjIyIiByeD0iMTAiLz48dGV4dCB4PSI1MCIgeT0iNTAiIGZvbnQtZmFtaWx5PSJBcmlhbCIgZm9udC1zaXplPSIxMiIgdGV4dC1hbmNob3I9Im1pZGRsZSIgZHk9Ii4zZW0iIGZpbGw9IndoaXRlIj5NUkM8L3RleHQ+PC9zdmc+" parent="1" vertex="1">
                    <mxGeometry x="710" y="330" width="50" height="70" as="geometry"/>
                </mxCell>
                <mxCell id="17" value="SAMRC" style="shape=image;imageAspect=0;aspect=fixed;verticalLabelPosition=bottom;verticalAlign=top;fontSize=10;image=data:image/svg+xml,PHN2ZyB4bWxucz0iaHR0cDovL3d3dy53My5vcmcvMjAwMC9zdmciIHdpZHRoPSI1MCIgaGVpZ2h0PSI1MCIgdmlld0JveD0iMCAwIDEwMCAxMDAiPjxjaXJjbGUgY3g9IjUwIiBjeT0iNTAiIHI9IjQ1IiBmaWxsPSIjODdDRUZBIi8+PHRleHQgeD0iNTAiIHk9IjUwIiBmb250LWZhbWlseT0iQXJpYWwiIGZvbnQtc2l6ZT0iMTIiIHRleHQtYW5jaG9yPSJtaWRkbGUiIGR5PSIuM2VtIiBmaWxsPSIjMDAwMDAwIj5TQTwvdGV4dD48L3N2Zz4=" parent="1" vertex="1">
                    <mxGeometry x="450" y="590" width="50" height="70" as="geometry"/>
                </mxCell>
                <mxCell id="18" value="&quot;Only fund research conducted in an environmentally sustainable way.&quot;&#10;- Wellcome Trust" style="shape=callout;whiteSpace=wrap;html=1;perimeter=calloutPerimeter;position2=0.58;fillColor=#00539B;fontColor=#FFFFFF;strokeColor=#00539B;base=20;size=30;position=0.42;" parent="1" vertex="1">
                    <mxGeometry x="100" y="70" width="270" height="80" as="geometry"/>
                </mxCell>
                <mxCell id="19" value="Research proposals without sustainability considerations increasingly face rejection" style="rounded=1;whiteSpace=wrap;html=1;fillColor=#228B22;strokeColor=#228B22;fontColor=#FFFFFF;" parent="1" vertex="1">
                    <mxGeometry x="655" y="430" width="220" height="60" as="geometry"/>
                </mxCell>
                <mxCell id="20" value="&lt;b&gt;New Funder Requirements&lt;/b&gt;" style="swimlane;fontStyle=0;childLayout=stackLayout;horizontal=1;startSize=30;horizontalStack=0;resizeParent=1;resizeParentMax=0;resizeLast=0;collapsible=1;marginBottom=0;whiteSpace=wrap;html=1;fillColor=#00539B;fontColor=#FFFFFF;" parent="1" vertex="1">
                    <mxGeometry x="650" y="510" width="230" height="120" as="geometry"/>
                </mxCell>
                <mxCell id="21" value="Carbon offsetting for travel emissions" style="text;strokeColor=none;fillColor=none;align=left;verticalAlign=middle;spacingLeft=4;spacingRight=4;overflow=hidden;points=[[0,0.5],[1,0.5]];portConstraint=eastwest;rotatable=0;whiteSpace=wrap;html=1;" parent="20" vertex="1">
                    <mxGeometry y="30" width="230" height="30" as="geometry"/>
                </mxCell>
                <mxCell id="22" value="Research design sustainability justification" style="text;strokeColor=none;fillColor=none;align=left;verticalAlign=middle;spacingLeft=4;spacingRight=4;overflow=hidden;points=[[0,0.5],[1,0.5]];portConstraint=eastwest;rotatable=0;whiteSpace=wrap;html=1;" parent="20" vertex="1">
                    <mxGeometry y="60" width="230" height="30" as="geometry"/>
                </mxCell>
                <mxCell id="23" value="Climate impact assessment in applications" style="text;strokeColor=none;fillColor=none;align=left;verticalAlign=middle;spacingLeft=4;spacingRight=4;overflow=hidden;points=[[0,0.5],[1,0.5]];portConstraint=eastwest;rotatable=0;whiteSpace=wrap;html=1;" parent="20" vertex="1">
                    <mxGeometry y="90" width="230" height="30" as="geometry"/>
                </mxCell>
                <mxCell id="24" value="Source: Wellcome Trust Environmental Sustainability Policy" style="text;html=1;strokeColor=none;fillColor=none;align=right;verticalAlign=middle;whiteSpace=wrap;rounded=0;fontColor=#666666;fontSize=10;" parent="1" vertex="1">
                    <mxGeometry x="545" y="660" width="250" height="20" as="geometry"/>
                </mxCell>
            </root>
        </mxGraphModel>
    </diagram>
</mxfile>